<?xml version="1.0" encoding="iso-8859-1"?>
<!-- Generator: Adobe Illustrator 17.1.0, SVG Export Plug-In . SVG Version: 6.00 Build 0)  -->
<!DOCTYPE svg PUBLIC "-//W3C//DTD SVG 1.1//EN" "http://www.w3.org/Graphics/SVG/1.1/DTD/svg11.dtd">
<svg version="1.1" id="Capa_1" xmlns="http://www.w3.org/2000/svg" xmlns:xlink="http://www.w3.org/1999/xlink" x="0px" y="0px"
	 viewBox="0 0 278 278" style="enable-background:new 0 0 278 278;" xml:space="preserve">
<path d="M205.333,65H179.5V28.167C179.5,12.636,167.198,0,151.667,0H127c-15.531,0-28.5,12.636-28.5,28.167V65H73.333
	c-4.142,0-7.833,3.358-7.833,7.5v198c0,4.142,3.691,7.5,7.833,7.5h132c4.142,0,7.167-3.358,7.167-7.5v-198
	C212.5,68.358,209.475,65,205.333,65z M113.5,28.167C113.5,20.906,119.739,15,127,15h24.667c7.26,0,12.833,5.906,12.833,13.167V65
	h-51V28.167z"/>
<g>
</g>
<g>
</g>
<g>
</g>
<g>
</g>
<g>
</g>
<g>
</g>
<g>
</g>
<g>
</g>
<g>
</g>
<g>
</g>
<g>
</g>
<g>
</g>
<g>
</g>
<g>
</g>
<g>
</g>
</svg>
